<svg width="15" height="14" viewBox="0 0 15 14" fill="none" xmlns="http://www.w3.org/2000/svg">
<path d="M5.64211 8.73167H1.34333C0.60143 8.73167 0 8.13026 0 7.38833V5.97495C0 5.79944 0.0343759 5.62568 0.10118 5.46347L2.17957 0.41593C2.2832 0.164256 2.52847 0 2.80064 0H14.105C14.476 0 14.7767 0.300719 14.7767 0.671667V7.38833C14.7767 7.75929 14.476 8.06 14.105 8.06H11.7664C11.5481 8.06 11.3435 8.16606 11.2176 8.34432L7.55477 13.5334C7.45906 13.669 7.27865 13.7144 7.13021 13.6401L5.91176 13.0309C5.2054 12.6777 4.84061 11.88 5.03544 11.1147L5.64211 8.73167ZM10.7467 6.99373V1.34333H3.25046L1.34333 5.97495V7.38833H5.64211C6.51846 7.38833 7.1601 8.21381 6.94396 9.06307L6.33724 11.4461C6.29829 11.5992 6.37123 11.7587 6.51255 11.8294L6.95659 12.0514L10.1202 7.56968C10.2881 7.33185 10.5026 7.13693 10.7467 6.99373ZM12.09 6.71667H13.4333V1.34333H12.09V6.71667Z" fill="#FF2626"/>
</svg>
