<svg width="15" height="14" viewBox="0 0 15 14" fill="none" xmlns="http://www.w3.org/2000/svg">
<path fill-rule="evenodd" clip-rule="evenodd" d="M14.0608 0.953434C14.2861 0.735323 14.2861 0.381695 14.0608 0.163583C13.8355 -0.0545278 13.4703 -0.0545278 13.245 0.163583L0.938143 12.0784C0.712856 12.2965 0.712856 12.6502 0.938143 12.8683C1.16343 13.0864 1.52869 13.0864 1.75398 12.8683L3.94375 10.7483C4.99468 11.2272 6.2051 11.5425 7.49948 11.5425C9.56396 11.5425 11.4149 10.7404 12.7457 9.75154C13.4124 9.25614 13.963 8.70347 14.352 8.16082C14.7302 7.63316 14.999 7.05411 14.999 6.51593C14.999 5.97775 14.7302 5.3987 14.352 4.87105C13.963 4.3284 13.4124 3.77573 12.7457 3.28033C12.5441 3.13051 12.3305 2.98498 12.1061 2.84588L14.0608 0.953434ZM11.2681 3.65721L9.90601 4.97591C10.208 5.41737 10.3839 5.94677 10.3839 6.51593C10.3839 8.05821 9.0925 9.30848 7.49948 9.30848C6.91159 9.30848 6.36478 9.1382 5.90879 8.84581L4.81908 9.90081C5.63866 10.2241 6.54733 10.4255 7.49948 10.4255C9.25824 10.4255 10.8686 9.73822 12.0433 8.86542C12.6293 8.42997 13.0925 7.95871 13.4041 7.52396C13.7265 7.07423 13.8452 6.72243 13.8452 6.51593C13.8452 6.30943 13.7265 5.95764 13.4041 5.5079C13.0925 5.07316 12.6293 4.6019 12.0433 4.16645C11.8024 3.98746 11.5432 3.81627 11.2681 3.65721ZM6.75333 8.02817C6.97926 8.13284 7.2323 8.19146 7.49948 8.19146C8.45529 8.19146 9.23013 7.4413 9.23013 6.51593C9.23013 6.25726 9.16958 6.01228 9.06147 5.79355L6.75333 8.02817Z" fill="black"/>
<path d="M7.49948 1.48936C8.28996 1.48936 9.04913 1.60695 9.75978 1.80759C9.8995 1.84704 9.94063 2.02227 9.83632 2.12326L9.2113 2.72837C9.16412 2.77405 9.09694 2.79231 9.03284 2.77801C8.5402 2.66809 8.0265 2.60637 7.49948 2.60637C5.74072 2.60637 4.13032 3.29365 2.9557 4.16645C2.36966 4.6019 1.90646 5.07316 1.59483 5.5079C1.27246 5.95764 1.15377 6.30943 1.15377 6.51593C1.15377 6.72243 1.27246 7.07423 1.59483 7.52396C1.86555 7.90164 2.25066 8.30687 2.73132 8.69224C2.82342 8.76608 2.83209 8.9044 2.74728 8.98651L2.2076 9.50899C2.13871 9.5757 2.03101 9.5816 1.95654 9.52119C1.42239 9.08784 0.976628 8.62073 0.646958 8.16082C0.268728 7.63316 0 7.05411 0 6.51593C0 5.97775 0.268728 5.3987 0.646958 4.87105C1.03593 4.3284 1.58652 3.77573 2.25323 3.28033C3.5841 2.29143 5.435 1.48936 7.49948 1.48936Z" fill="black"/>
<path d="M7.49948 3.72339C7.5872 3.72339 7.674 3.72718 7.75973 3.7346C7.91321 3.74789 7.9681 3.93198 7.85742 4.03913L6.93597 4.93123C6.43346 5.09869 6.03561 5.48387 5.86264 5.97037L4.92742 6.87581C4.81959 6.9802 4.64167 6.92547 4.62741 6.77606C4.61924 6.69042 4.61506 6.60365 4.61506 6.51593C4.61506 4.97365 5.90646 3.72339 7.49948 3.72339Z" fill="black"/>
</svg>
